<svg width="395" height="395" viewBox="0 0 395 395" fill="none" xmlns="http://www.w3.org/2000/svg">
<circle cx="197.5" cy="197.5" r="197.5" fill="#01133F"/>
<path d="M189.32 314C189.196 308.448 187.916 303.941 185.481 300.48C182.983 296.947 179.581 294.603 175.273 293.449C170.965 292.296 163.597 291.683 153.171 291.611C142.744 291.539 135.876 291.322 132.567 290.962C127.323 290.313 123.108 289.123 119.924 287.392C116.74 285.59 114.211 283.39 112.338 280.794C110.403 278.199 108.935 274.882 107.937 270.844C107.312 268.104 107 263.633 107 257.432V251.375H121.703V254.728C121.703 262.227 122.89 267.202 125.262 269.654C127.572 272.106 132.786 273.331 140.902 273.331C157.26 273.331 167.593 273.728 171.901 274.521C178.582 275.819 183.733 278.054 187.354 281.227C190.975 284.328 194.19 289.231 197 295.937C199.872 288.005 204.274 282.273 210.205 278.739C216.074 275.134 225.72 273.331 239.144 273.331C251.318 273.331 258.561 273.187 260.871 272.899C265.117 272.322 268.082 270.88 269.768 268.572C271.454 266.193 272.297 261.578 272.297 254.728V251.375H287V257.432C287 264.498 286.501 269.618 285.502 272.791C284.066 277.405 281.724 281.227 278.478 284.256C275.293 287.284 271.235 289.267 266.303 290.205C261.37 291.07 253.285 291.539 242.047 291.611C230.809 291.683 223.035 292.296 218.727 293.449C214.419 294.603 211.017 296.947 208.519 300.48C206.022 303.941 204.711 308.448 204.586 314H189.32Z" fill="#02C8F0"/>
<path d="M166.376 226.173H147.177V204H166.376V226.173ZM246.636 226.173H227.437V204L246.636 204V226.173Z" fill="#02C8F0"/>
<g clip-path="url(#clip0_314_86)">
<path d="M138.621 178.1C138.01 178.094 137.402 178.082 136.79 178.076C135.962 178.073 135.135 178.053 134.309 178.079C133.629 178.098 132.953 178.235 132.277 178.204C130.667 178.133 129.064 177.982 127.456 177.899C127.075 177.88 126.697 178.004 126.312 178.058C126.063 178.088 125.753 178.211 125.576 178.103C125.053 177.786 124.588 177.969 124.095 178.087C123.805 178.158 123.501 178.214 123.205 178.197C117.16 177.791 111.196 176.832 105.381 174.877C102.638 173.952 99.8569 173.163 97.1415 172.147C94.7223 171.238 92.3632 170.145 90.0017 169.066C87.8925 168.099 85.7749 167.122 83.7369 165.993C81.904 164.971 80.2234 163.64 78.3881 162.63C77.4066 162.089 76.4285 161.582 75.5526 160.857C74.3452 159.849 73.0083 158.977 71.9228 157.847C70.4106 156.269 68.7704 154.831 67.3042 153.21C65.8131 151.56 64.2441 149.96 62.8963 148.183C60.9985 145.684 59.2262 143.098 57.8836 140.196C56.627 137.468 55.4999 134.711 55.0335 131.757C54.8077 130.34 54.2585 128.973 54.1702 127.58C53.946 124.096 53.9693 120.641 55.0327 117.259C56.3918 112.944 58.9174 109.611 62.4944 107.215C65.6594 105.094 69.2209 104.13 73.0734 104.612C75.5749 104.926 78.0939 105.133 80.5564 105.666C83.3315 106.26 86.0581 107.124 88.785 107.946C93.7323 109.442 98.5672 111.291 103.333 113.331C106.208 114.562 109.103 115.74 111.96 117.012C115.494 118.577 119.002 120.22 122.526 121.811C122.915 121.99 123.341 122.092 123.892 122.275C123.825 121.743 123.778 121.391 123.736 121.038C123.597 119.861 123.45 118.681 123.316 117.503C123.298 117.37 123.312 117.205 123.376 117.105C124.093 115.953 123.628 114.797 123.319 113.648C123.008 112.493 122.571 111.353 122.392 110.181C122.197 108.924 122.22 107.627 122.179 106.347C122.115 104.314 122.577 102.304 122.323 100.261C122.151 98.8542 121.967 97.4446 121.767 96.0392C121.318 92.9127 121.284 89.8259 122.099 86.7779C122.386 85.7041 122.578 84.5956 122.742 83.4885C123.036 81.5106 123.862 79.8223 125.251 78.4933C126.435 77.3619 127.206 75.9391 128.011 74.5373C128.528 73.6419 128.521 73.5302 129.4 73.9197C130.059 74.2118 130.486 73.9734 130.972 73.6301C133.602 71.7522 136.231 69.8688 138.887 68.0259C139.977 67.2719 141.143 66.6296 142.244 65.8965C142.864 65.4816 143.42 65.4246 144.088 65.8579C144.529 66.1477 145.043 66.5798 145.759 65.6854C145.207 65.5622 144.661 65.4375 144.109 65.3142C144.15 65.1423 144.186 64.9773 144.226 64.8054C145.586 64.273 146.914 63.6415 148.365 63.3479C148.691 64.4987 148.905 64.55 150.227 63.5971C149.481 63.5134 148.911 63.4488 148.342 63.3899C148.433 62.7204 148.994 62.7276 149.44 62.6037C152.249 61.8323 155.06 61.0958 157.866 60.3132C158.886 60.0317 159.911 59.7432 160.881 59.3318C161.676 58.9962 162.375 58.8537 163.114 59.4712C163.247 59.5856 163.494 59.5501 163.913 59.6247C163.54 59.0777 163.298 58.7233 163.001 58.2879C163.328 58.1 163.576 57.9388 163.833 57.8111C165.503 57.0056 167.189 56.2378 168.846 55.4058C170.442 54.6019 171.844 53.5385 172.906 52.0327C173.725 50.8782 173.811 50.8557 174.919 51.5969C175.391 51.9146 175.81 51.9892 176.281 51.7451C178.476 50.592 180.862 50.6012 183.262 50.6369C186.177 50.6799 189.096 50.7398 192.011 50.7409C193.067 50.743 194.122 50.5899 195.18 50.5137C195.427 50.4965 195.681 50.5309 196.022 50.5484C195.905 50.9678 195.82 51.295 195.672 51.8361C196.787 51.1533 197.715 50.5855 198.858 49.8831C198.339 49.8171 198.02 49.7339 197.703 49.7401C193.73 49.7732 189.76 49.8175 185.786 49.8688C183.978 49.892 182.168 49.9516 180.359 49.9692C178.925 49.9832 177.559 50.2962 176.247 50.8578C176.052 50.9392 175.831 50.9676 175.559 51.0394C175.271 50.6851 174.999 50.3447 174.632 49.8856C174.065 50.1788 173.454 50.412 172.922 50.7736C171.278 51.8949 169.695 53.1138 168.032 54.2043C166.632 55.1238 165.167 55.947 163.698 56.7591C162.619 57.3608 161.492 57.8675 160.391 58.4273C159.743 58.7537 159.16 58.6268 158.642 58.0465C158.554 57.9502 158.426 57.9002 158.272 57.7915C157.614 58.2162 156.956 58.641 156.298 59.0657C155.025 59.8802 153.731 60.6402 152.241 60.9618C152.112 60.99 151.988 61.0405 151.857 61.0631C147.058 61.8763 142.868 64.1122 138.928 66.8856C136.581 68.5392 134.34 70.3562 132.045 72.0977C131.489 72.5195 130.939 72.9454 130.131 72.8003C130.161 72.5892 130.13 72.4062 130.198 72.3404C131.757 70.877 133.222 69.2768 135.058 68.1706C136.105 67.5354 136.975 66.6603 138.003 66.0182C139.962 64.7958 141.981 63.671 143.9 62.3815C145.72 61.1537 147.77 60.708 149.859 60.4076C151.47 60.1794 152.908 59.5546 154.297 58.7875C155.401 58.1732 156.403 57.3649 157.517 56.7897C158.406 56.3337 159.395 56.0369 160.362 55.7694C161.59 55.4274 162.853 55.2013 164.096 54.897C165.435 54.5673 166.568 53.8677 167.643 52.9684C169.125 51.7343 170.617 50.4261 172.31 49.5787C174.102 48.6752 176.12 48.1541 178.188 48.2296C181.004 48.3287 183.825 48.6417 186.639 48.6514C190.782 48.657 194.917 48.414 199.059 48.4196C200.184 48.4215 201.389 48.0614 202.499 48.9158C202.842 49.1778 203.574 49.0981 204.03 48.9239C204.988 48.5572 205.913 48.5582 206.933 48.5994C207.696 48.637 208.498 48.736 209.238 48.6842C210.535 48.5866 211.704 49.6225 212.995 49.0666C213.732 49.7624 214.611 49.2016 215.401 49.4055C216.792 49.773 218.178 50.1601 219.569 50.522C220.119 50.6635 220.683 50.7657 221.238 50.882C221.455 50.9263 221.698 50.916 221.88 51.0232C223.269 51.8757 224.87 51.9968 226.347 52.557C227.298 52.9212 227.725 53.4779 227.688 54.7007C227.187 54.5285 226.75 54.3868 226.326 54.2297C223.981 53.3611 221.65 52.4407 219.289 51.6237C216.44 50.6429 213.523 50.6124 210.617 51.0333C206.777 51.593 202.945 52.2044 199.126 52.8842C195.498 53.5315 191.854 53.6213 188.169 53.3212C184.071 52.9871 180.036 53.2397 176.155 54.6589C173.211 55.7353 170.34 57.0252 167.698 58.727C164.383 60.8633 160.78 62.2568 157.05 63.3375C153.41 64.3942 149.736 65.3644 146.269 66.9253C143.699 68.0819 141.149 69.3112 138.673 70.6702C136.002 72.1345 133.413 73.7565 130.826 75.3659C129.019 76.4945 127.417 77.9035 125.976 79.5092C124.988 80.6067 124.449 81.9382 124.092 83.3712C123.921 84.0619 123.805 84.7678 123.613 85.7268C124.122 85.4309 124.428 85.2906 124.689 85.0902C129.05 81.7095 133.738 78.8997 138.648 76.4318C144.098 73.6959 149.627 71.1541 155.301 68.9627C161.879 66.4188 168.489 63.9266 175.197 61.7667C179.929 60.2424 184.815 59.1551 189.692 58.1602C194.353 57.2104 199.076 56.5846 203.792 55.9072C208.382 55.251 213.012 54.9845 217.655 55.0912C220.966 55.167 224.274 55.4231 227.588 55.5939C227.889 55.61 228.19 55.608 228.632 55.6169C228.472 55.2469 228.355 54.9789 228.239 54.7108C228.999 53.7031 229.172 53.6874 230.163 54.2863C231.692 55.2153 233.234 56.1289 234.791 57.0145C235.959 57.6801 236.945 58.5194 237.433 59.8488C238.106 61.6612 238.752 63.4808 239.408 65.2975C239.568 65.7275 239.741 66.1478 239.911 66.5751C240.205 67.2983 240.575 68.0075 240.783 68.7533C241.378 70.8971 242.347 72.8404 243.368 74.8058C244.458 76.9026 245.571 79.023 246.111 81.3905C246.331 82.3543 246.886 83.2475 247.279 84.1718C247.442 84.553 247.71 84.9423 247.714 85.3238C247.735 87.3681 249.068 88.8747 249.81 90.6032C250.374 91.9184 250.882 93.2365 251.339 94.5799C251.74 95.7529 252.213 96.895 252.624 98.0652C252.836 98.6727 252.996 99.2998 253.167 99.9241C253.462 101.041 253.86 102.096 254.779 102.875C256.336 100.629 257.858 98.4642 259.722 96.5795C260.923 95.36 261.981 93.987 263.104 92.6865C263.335 92.4164 263.531 92.0359 263.83 91.9151C265.212 91.359 265.795 89.8961 266.93 89.0526C268.06 88.2105 268.985 87.0697 270.143 86.2918C270.941 85.7522 271.672 85.1708 272.407 84.5643C272.788 84.2547 273.365 84.2158 273.825 83.9927C274.474 83.684 274.9 83.0934 275.415 82.6047C276.174 81.8905 277.139 81.3966 278.057 80.8792C280.1 79.7362 282.14 78.582 284.243 77.5605C285.113 77.1395 285.983 76.7185 286.849 76.3046C288.426 75.5594 290.084 74.9663 291.748 74.4431C293.634 73.8496 295.54 73.2268 297.489 72.9392C299.772 72.5992 302.05 71.956 304.399 72.214C305.251 72.3059 306.014 71.9788 306.844 72.0526C308.304 72.181 309.835 71.9739 311.22 72.3792C312.363 72.7109 313.504 72.6904 314.619 72.9816C316.115 73.3755 317.662 73.6602 319.075 74.2793C320.384 74.8537 321.795 75.1625 322.991 76.1076C324.181 77.0484 325.678 77.5555 326.853 78.5062C328.305 79.6826 329.919 80.6967 331.027 82.2987C331.102 82.4103 331.159 82.5626 331.261 82.6252C332.694 83.5377 333.826 84.7567 334.797 86.1857C335.243 86.8388 336.051 87.1991 336.141 88.1673C336.166 88.4537 336.718 88.6664 336.906 88.9875C337.499 90.0022 338.028 91.0576 338.592 92.0919C338.918 92.6991 339.273 93.2867 339.583 93.8982C339.726 94.1829 340.086 94.4645 339.553 94.8023C339.446 94.8724 339.614 95.8321 339.879 96.0132C340.649 96.5329 340.529 97.0907 340.199 97.853C340.753 98.0713 341.151 98.4324 340.815 99.1248C340.744 99.2689 340.648 99.5513 340.705 99.5959C341.387 100.211 341.195 101.104 341.242 101.803C341.323 103.036 341.533 104.35 340.963 105.54C340.904 105.663 340.822 105.804 340.842 105.925C341.2 108.298 340.149 110.386 339.754 112.606C339.701 112.901 339.457 113.145 339.334 113.434C339.12 113.921 338.788 114.415 338.768 114.922C338.732 115.822 338.433 116.589 338.062 117.344C337.199 119.132 336.335 120.914 335.451 122.689C335.272 123.047 335.051 123.398 334.796 123.705C334.257 124.343 333.806 125.036 333.444 125.801C332.615 127.544 331.241 128.844 329.991 130.244C329.907 130.338 329.817 130.428 329.747 130.53C329.325 131.137 329.034 131.979 328.462 132.297C327.806 132.662 327.819 133.686 326.963 133.703C326.432 134.955 325.37 135.732 324.479 136.654C323.691 137.472 322.926 138.421 321.954 138.91C320.999 139.396 320.502 140.28 319.719 140.899C318.627 141.755 317.777 142.942 316.35 143.307C316.136 143.363 315.952 143.657 315.824 143.888C315.586 144.303 315.335 144.585 314.806 144.611C314.581 144.623 314.371 144.971 314.169 145.18C313.958 145.397 313.8 145.791 313.561 145.836C312.486 146.066 311.827 147.005 310.854 147.423C310.244 147.686 309.766 148.272 309.228 148.719C309.095 148.605 308.962 148.491 308.831 148.382C308.661 148.624 308.495 148.859 308.325 149.101C307.828 149.25 307.333 149.321 307.038 149.907C306.849 150.274 306.407 150.522 306.044 150.767C303.393 152.543 300.589 154.024 297.734 155.418C293.844 157.318 289.83 158.903 285.775 160.375C284.614 160.795 283.422 161.552 282.275 161.466C281.066 161.379 280.089 161.87 278.995 161.986C278.74 162.011 278.499 162.135 278.297 162.409L280.212 161.903C280.232 161.982 280.254 162.065 280.275 162.144C278.023 162.84 275.808 163.741 273.501 164.184C271.046 164.652 268.656 165.343 266.212 165.833C263.716 166.337 261.232 166.891 258.727 167.32C257.942 167.455 257.093 167.267 256.273 167.227C256.909 167.154 257.55 167.075 258.191 166.995C258.647 166.929 259.093 166.87 259.545 166.811C259.516 166.699 259.488 166.593 259.458 166.481L258.175 167.023C257.95 166.945 257.702 166.784 257.5 166.819C257.08 166.894 256.685 167.082 256.278 167.225C255.725 167.419 255.185 167.729 254.615 167.796C252.748 168.008 250.925 168.579 249.012 168.439C248.924 168.432 248.837 168.449 248.749 168.46C246.319 168.72 243.887 169.015 241.451 169.228C240.547 169.306 239.624 169.203 238.711 169.181C238.82 169.116 238.928 169.052 239.313 168.825C238.71 168.787 238.379 168.766 238.048 168.74C238.046 168.8 238.045 168.861 238.044 168.921L238.763 169.203C237.102 169.241 235.446 169.278 233.784 169.316C233.932 169.248 234.086 169.183 234.421 169.029C233.934 168.954 233.638 168.913 233.126 168.833C233.5 169.104 233.668 169.222 233.837 169.344C232.705 169.356 231.562 169.455 230.439 169.351C228.837 169.2 227.255 169.325 225.664 169.303C225.308 169.296 224.945 169.045 224.585 168.913C224.166 168.904 223.747 168.895 223.329 168.886C222.066 168.879 220.804 168.871 219.541 168.864C219.108 168.865 218.671 168.831 218.245 168.884C216.638 169.081 215.038 169.462 213.425 169.487C208.792 169.569 204.44 171.041 199.973 171.946C199.062 172.126 198.151 172.522 197.197 171.997C197.09 171.936 196.891 172.048 196.745 172.099C195.915 172.372 195.109 172.752 194.263 172.898C192.227 173.244 190.178 173.522 188.12 173.743C187.632 173.794 187.043 174.242 186.567 173.585C186.524 173.531 186.297 173.555 186.2 173.622C184.997 174.4 183.593 174.311 182.26 174.513C180.701 174.746 179.142 174.996 177.537 175.097L178.293 174.742C178.278 174.686 178.265 174.636 178.25 174.58C177.726 174.689 177.199 174.792 176.675 174.9L176.701 174.935C176.057 174.633 175.56 174.89 175.117 175.354L175.121 175.323C172.619 175.679 170.126 176.176 167.606 176.351C165.398 176.504 163.219 176.804 161.025 177.007C160.195 177.083 159.363 177.195 158.534 177.229C158.156 177.245 157.766 177.109 157.389 177.041C159.327 176.864 161.26 176.688 163.193 176.512L163.165 176.233C161.873 176.329 160.569 176.381 159.28 176.535C158.645 176.614 158.033 176.865 157.413 177.046C155.769 177.259 154.137 177.625 152.485 177.654C150.089 177.696 147.71 177.953 145.32 177.999C144.725 178.012 144.123 177.831 143.535 177.741C144.513 177.728 145.487 177.703 146.458 177.686C145.442 177.207 144.48 177.366 143.537 177.747C143.373 177.688 143.211 177.635 143.042 177.578C142.865 177.601 142.688 177.624 142.512 177.647C141.722 177.658 140.936 177.662 140.146 177.674L140.207 177.688C139.581 177.476 139.047 177.593 138.612 178.109L138.614 178.072L138.621 178.1ZM266.438 119.291C267.485 118.697 268.581 118.181 269.688 117.297C269.309 117.182 269.15 117.075 269.088 117.121C268.231 117.7 267.384 118.294 266.548 118.909C266.466 118.966 266.483 119.159 266.443 119.289L264.795 119.724C264.833 119.822 264.863 119.916 264.9 120.013C265.414 119.776 265.926 119.533 266.439 119.296L266.438 119.291ZM212.87 161.942C214.05 161.81 215.232 161.683 216.534 161.537C215.456 160.608 214.403 159.775 213.433 158.847C212.785 158.23 212.164 158.167 211.375 158.399C209.78 158.88 208.157 159.279 206.547 159.728C206.291 159.795 206.06 159.958 205.606 160.185C206.051 160.355 206.245 160.465 206.452 160.494C208.068 160.736 209.683 160.997 211.3 161.18C211.947 161.254 212.518 161.366 212.916 161.966C212.385 162.136 211.849 162.308 211.271 162.496C212.913 163.509 213.52 163.54 214.435 162.683C213.907 162.434 213.387 162.194 212.866 161.949L212.87 161.942ZM208.271 162.045C208.511 162.37 208.781 162.442 209.077 161.964L208.248 162.087C207.992 161.94 207.755 161.709 207.485 161.661C205.26 161.251 203.032 160.847 200.803 160.485C192.466 159.137 184.246 157.172 176.092 154.873C164.757 151.674 153.615 147.78 142.584 143.551C133.058 139.899 123.579 136.103 114.081 132.366C106.329 129.321 98.587 126.25 90.8289 123.225C85.6585 121.208 80.4781 119.217 75.1077 117.868C72.0709 117.104 68.9977 116.613 65.9004 117.132C63.7143 117.494 61.5777 118.023 59.9461 119.75C58.6771 121.101 57.6713 122.628 56.9753 124.377C56.893 124.584 56.8978 124.84 56.867 125.069C57.6199 124.464 58.1313 123.743 58.6494 123.027C59.7302 121.546 61.0872 120.399 62.7565 119.743C66.8661 118.132 71.1236 117.88 75.3715 119.191C79.887 120.586 84.3585 122.161 88.7882 123.836C94.9791 126.175 101.114 128.691 107.281 131.114C112.571 133.195 117.864 135.264 123.168 137.312C130.726 140.228 138.264 143.198 145.862 145.984C151.445 148.03 157.104 149.847 162.743 151.692C171.609 154.592 180.549 157.234 189.652 159.109C194.611 160.13 199.599 160.959 204.587 161.811C205.794 162.018 207.038 161.976 208.266 162.047L208.271 162.045ZM155.281 118.791C155.44 119.718 155.665 120.483 155.68 121.25C155.735 123.662 156.312 125.978 156.882 128.307C157.213 129.648 157.434 131.024 157.706 132.381C157.768 132.681 157.864 132.978 157.976 133.403C160.804 132.686 163.154 130.566 166.228 131.062C165.969 131.376 165.662 131.576 165.328 131.713C162.704 132.752 160.07 133.77 157.456 134.825C157.003 135.011 156.61 135.336 155.929 135.76C156.574 136.128 156.922 136.389 157.309 136.537C159.817 137.501 162.337 138.425 164.841 139.395C165.546 139.669 166.179 139.687 166.89 139.446C169.52 138.56 172.167 137.718 174.82 136.898C177.052 136.213 179.336 135.681 181.539 134.908C185.574 133.49 189.549 131.909 193.57 130.458C195.31 129.832 197.071 129.223 198.877 128.848C203.28 127.936 207.704 127.15 212.13 126.346C214.95 125.835 217.769 125.323 220.607 124.921C223.62 124.495 226.661 124.26 229.675 123.835C235.657 122.984 241.631 122.04 247.693 121.904C250.064 121.851 252.48 121.907 254.822 122.286C256.812 122.609 258.738 123.463 260.689 124.09C261.088 124.217 261.452 124.54 261.971 124.343C261.164 123.038 260.402 121.793 259.626 120.563C258.989 119.554 258.389 118.512 257.68 117.557C256.801 116.367 255.788 115.338 254.317 114.931C249.904 113.706 245.438 113.212 240.902 113.251C236.241 113.292 231.669 114.039 227.112 114.818C222.811 115.554 218.534 116.444 214.305 117.519C206.44 119.512 198.63 121.688 190.794 123.793C189.095 124.248 187.385 124.687 185.7 125.198C182.765 126.092 179.843 127.037 176.913 127.954C176.113 128.207 175.301 128.416 174.509 128.679C172.626 129.301 170.755 129.951 168.872 130.574C168.542 130.685 168.184 130.755 167.843 130.738C167.687 130.731 167.443 130.479 167.403 130.304C167.365 130.141 167.504 129.865 167.645 129.75C167.847 129.589 168.122 129.529 168.368 129.446C170.209 128.834 172.051 128.228 173.895 127.628C176.022 126.934 178.15 126.241 180.225 125.568C180.245 124.283 177.061 111.75 176.327 110.115C176.052 110.175 175.752 110.207 175.476 110.304C173.344 111.022 171.206 111.718 169.091 112.48C164.527 114.121 159.985 115.822 155.421 117.464C149.232 119.69 143.19 122.253 137.376 125.36C136.305 125.93 135.287 126.587 134.24 127.204C134.254 127.32 134.269 127.442 134.277 127.559C137.17 128.708 139.959 130.152 143.011 130.823C143.084 130.624 143.157 130.533 143.138 130.46C142.876 129.382 142.61 128.311 142.327 127.238C141.769 125.127 141.815 124.977 143.56 123.763C143.743 123.637 143.925 123.505 144.124 123.417C147.052 122.082 149.974 120.725 152.924 119.432C153.593 119.136 154.343 119.039 155.281 118.791ZM176.474 143.531C176.463 143.683 176.447 143.837 176.436 143.989C177.422 144.356 178.411 144.728 179.403 145.094C183.095 146.462 186.809 147.758 190.632 148.625C191.22 148.757 191.891 148.836 192.447 148.672C193.625 148.319 194.793 147.879 195.887 147.315C199.999 145.213 204.345 144.089 208.957 143.905C211.204 143.814 213.463 143.708 215.678 143.392C219.515 142.845 223.341 142.187 227.147 141.457C229.839 140.937 232.532 140.531 235.276 140.446C238.716 140.338 242.155 140.225 245.593 140.088C249.43 139.93 253.273 139.793 257.098 139.548C259.65 139.382 262.21 139.16 264.729 138.764C268.168 138.221 271.588 137.563 274.984 136.815C279.113 135.904 283.234 134.918 287.027 132.93C288.866 131.966 290.704 131.021 291.582 128.835C291.94 127.945 291.867 127.301 291.333 126.552C289.31 123.709 286.616 122.431 283.285 122.408C278.701 122.375 274.38 123.51 270.144 125.095C269.931 125.175 269.767 125.374 269.577 125.52C272.038 125.551 274.483 124.786 276.792 126.226C276.495 127.285 276.337 127.595 275.418 127.957C274.194 128.442 272.934 128.876 271.647 129.168C267.661 130.078 263.641 130.452 259.586 129.204C259.208 129.088 258.81 128.984 258.419 128.974C256.518 128.926 254.621 128.847 252.724 128.9C247.066 129.056 241.457 129.676 235.879 130.545C231.568 131.218 227.281 132.051 222.966 132.688C217.256 133.533 211.528 134.286 205.796 135.023C203.677 135.295 201.648 135.819 199.666 136.588C194.654 138.539 189.635 140.486 184.362 141.645C182.427 142.072 180.498 142.522 178.569 142.972C177.859 143.135 177.161 143.343 176.457 143.529L176.474 143.531ZM69.4284 148.747C69.0904 147.683 68.7256 146.733 68.4941 145.749C68.0892 144.021 68.563 142.575 69.8546 141.439C71.4471 140.038 73.4302 139.772 75.4079 139.614C78.1904 139.393 80.9697 139.765 83.7316 140.201C87.4539 140.796 91.1679 141.488 94.8812 142.157C97.3657 142.601 99.8554 143.043 102.333 143.548C104.202 143.927 106.059 144.417 107.925 144.827C108.416 144.936 108.97 145.112 109.446 144.365C108.911 144.112 108.469 143.822 107.99 143.692C103.688 142.545 99.3853 141.392 95.0649 140.304C90.0549 139.045 85.0488 137.779 80.015 136.646C77.5952 136.102 75.1252 135.756 72.6636 135.486C71.0414 135.305 69.3934 135.393 67.8272 135.986C65.7265 136.78 64.7819 138.344 65.0156 140.655C65.2564 143.036 66.4399 145.012 67.5853 147.016C67.8206 147.432 68.0231 147.875 68.2483 148.317C67.6398 148.735 67.2938 148.57 67.017 148.105C66.8086 147.747 66.6055 147.389 66.4024 147.03C65.3572 145.232 64.4356 143.384 64.0358 141.308C63.684 139.501 64.1079 137.93 65.2129 136.563C66.2318 135.302 67.6495 134.838 69.1566 134.583C71.2196 134.23 73.3078 134.318 75.3578 134.715C78.4537 135.314 81.5377 135.975 84.605 136.725C91.0014 138.287 97.3888 139.923 103.776 141.536C106.88 142.318 109.983 143.094 113.085 143.888C113.182 143.911 113.244 144.08 113.417 144.303C112.774 144.741 112.169 145.152 111.367 145.699C111.865 145.86 112.066 145.95 112.271 145.992C113.491 146.225 114.725 146.384 115.925 146.694C120.662 147.935 125.383 149.223 130.112 150.496C130.664 150.643 131.216 150.79 131.794 150.667C128.05 149.427 124.286 148.353 120.522 147.297C119.148 146.913 117.758 146.617 116.385 146.232C115.362 145.946 115.128 145.62 115.134 144.65C115.302 144.66 115.48 144.642 115.641 144.69C120.147 145.962 124.65 147.247 129.151 148.521C138.844 151.268 148.51 154.13 158.242 156.706C165.989 158.76 173.819 160.457 181.612 162.296C181.862 162.355 182.14 162.264 182.48 162.234C182.2 161.411 181.603 161.42 181.118 161.291C177.462 160.296 173.806 159.307 170.149 158.331C161.495 156.02 152.86 153.627 144.411 150.533C135.507 147.273 126.611 143.98 117.744 140.602C108.668 137.142 99.634 133.563 90.4115 130.566C85.8253 129.076 81.229 127.613 76.4782 126.817C72.6286 126.172 68.8262 125.987 65.0695 127.206C63.5612 127.694 62.1544 128.221 61.5583 129.938C61.4703 130.189 61.2892 130.41 61.1225 130.621C60.2201 131.762 60.1699 133.084 60.2937 134.503C60.6202 138.224 61.9368 141.611 63.7714 144.778C68.8522 153.543 75.5764 160.45 84.489 165.017C92.0828 168.911 99.8811 172.152 108.036 174.391C112.12 175.512 116.21 176.614 120.448 176.72C120.705 176.723 120.962 176.638 121.224 176.592C116.978 175.568 112.783 174.632 108.388 173.109C109.101 172.784 109.508 172.598 110.093 172.33C108.611 171.556 107.338 171.313 106.144 172.022C105.281 171.282 104.499 170.61 103.702 169.924C103.198 170.794 102.557 171.109 101.778 170.869C93.8284 168.414 86.407 164.72 79.3962 160.075C79.0772 159.861 78.7982 159.582 78.6381 159.451C78.9739 158.627 79.2453 157.97 79.595 157.112C81.778 159.59 84.0029 161.578 86.6036 163.067C89.2043 164.555 91.8934 165.817 94.7794 166.615C94.4286 166.194 94.0045 165.905 93.5563 165.677C88.8039 163.298 84.1361 160.808 80.2064 156.987C79.017 155.831 78.2986 154.514 77.9445 153C77.4434 150.844 78.115 149.585 80.0723 148.745C81.1227 148.294 82.2402 148.011 83.3263 147.653C83.6777 147.536 84.0291 147.419 84.568 147.235C84.2385 147.089 84.129 146.999 84.0257 146.996C82.1207 146.997 80.3711 147.608 78.746 148.54C77.1315 149.468 76.6103 150.843 77.1211 152.734C77.3831 153.704 77.8463 154.616 78.2149 155.558C78.3334 155.856 78.4252 156.16 78.5345 156.466C78.1468 156.467 77.9461 156.376 77.7937 156.231C75.1312 153.731 75.3869 149.558 78.3293 147.61C78.6251 147.412 78.9546 147.277 79.245 147.081C79.4827 146.923 79.6873 146.725 80.099 146.383C79.4448 146.066 78.969 145.863 78.515 145.612C78.0186 145.331 77.5494 145.347 77.1767 145.751C76.5701 146.413 75.924 146.494 75.1592 146.038C75.0434 145.967 74.8428 146.05 74.6459 146.06C74.6139 146.631 74.7143 147.184 74.53 147.609C74.2046 148.364 73.712 149.026 74.4001 149.86C74.4761 149.954 74.4266 150.242 74.3427 150.378C74.0098 150.932 74.1819 151.454 74.4486 151.945C75.3887 153.669 75.9124 155.652 77.4238 157.034C77.9656 157.531 77.7513 157.994 77.229 158.478C76.9307 158.234 76.6442 158.035 76.3915 157.791C73.9966 155.483 71.6094 153.161 69.2252 150.85C68.2582 149.91 68.2769 149.571 69.4139 148.757L69.4284 148.747ZM202.112 151.379C202.427 151.516 202.702 151.671 202.993 151.755C204.666 152.216 206.351 152.656 208.024 153.116C212.39 154.312 216.77 154.524 221.154 153.587C224.384 152.902 227.638 152.282 230.83 151.433C235.223 150.267 239.68 149.95 244.214 150.14C246.377 150.232 248.545 150.275 250.708 150.236C254.337 150.174 257.916 149.689 261.494 149.151C266.292 148.421 271.006 147.326 275.672 146.028C280.469 144.69 285.222 143.225 289.912 141.545C294.404 139.934 298.61 137.844 302.029 134.395C304.984 131.415 306.831 127.826 306.861 123.36C306.869 122.157 306.565 121.071 305.918 120.089C305.071 118.806 304.043 117.656 302.642 117.081C301.203 116.493 299.702 115.993 298.194 115.68C294.615 114.94 291.045 115.417 287.507 115.843C283.726 116.303 280.103 117.487 276.567 118.851C272.664 120.36 268.845 122.097 264.993 123.736C264.793 123.819 264.546 123.878 264.417 124.038C264.3 124.176 264.234 124.468 264.296 124.637C264.358 124.806 264.608 125.021 264.773 125.019C265.068 125.013 265.371 124.885 265.654 124.769C266.757 124.322 267.835 123.804 268.959 123.418C271.541 122.521 274.109 121.574 276.744 120.86C279.374 120.148 282.065 119.67 284.744 119.142C286.896 118.717 289.064 119.107 291.206 119.396C293.206 119.669 295.121 120.376 296.67 121.814C299.565 124.503 300.198 126.966 298.189 130.484C298.034 130.759 297.829 130.998 297.631 131.241C295.866 133.459 293.584 134.97 291.15 136.252C288.726 137.525 286.177 138.503 283.614 139.467C279.041 141.182 274.287 142.103 269.505 142.876C266.25 143.4 262.941 143.659 259.653 143.995C257.287 144.237 254.909 144.393 252.539 144.619C250.607 144.8 248.66 144.92 246.755 145.267C244.224 145.727 241.682 145.89 239.11 145.762C236.041 145.61 233.045 145.887 230.073 146.684C227.697 147.324 225.261 147.841 222.815 148.081C217.906 148.565 212.963 148.77 208.043 149.191C206.385 149.33 204.75 149.749 203.118 150.091C202.588 150.201 202.143 150.504 202.112 151.36L202.112 151.379ZM258.362 116.295C259.25 116.264 259.798 115.833 260.316 115.332C263.538 112.24 267.087 109.587 270.709 107.035C274.502 104.354 278.466 101.957 282.632 99.9124C286.006 98.2567 289.425 96.7323 292.963 95.5052C296.736 94.198 300.612 93.4496 304.65 93.6861C309.343 93.9589 313.736 95.279 317.739 97.9512C323.595 101.855 326.575 107.457 326.582 114.591C326.588 119.346 325.207 123.709 322.66 127.626C322.494 127.885 322.376 128.173 322.238 128.449C322.312 128.513 322.393 128.581 322.467 128.646C322.792 128.452 323.164 128.306 323.438 128.048C324.375 127.167 325.32 126.296 326.173 125.336C327.268 124.103 328.443 122.89 329.277 121.469C330.645 119.135 331.558 116.563 332.111 113.842C333.613 106.483 330.343 98.9795 325.027 94.7896C323.118 93.2856 320.98 92.0574 318.834 90.9326C315.583 89.2273 312.114 88.1234 308.506 87.8511C302.79 87.4182 297.229 88.307 291.827 90.1219C286.368 91.9579 281.304 94.6217 276.482 97.8133C269.986 102.116 264.125 107.184 258.915 113.072C258.08 114.015 257.9 115.019 258.359 116.302L258.362 116.295ZM217.865 67.8547C217.74 67.3798 217.666 66.8853 217.481 66.4441C216.177 63.3403 214.838 60.2575 213.542 57.1453C213.296 56.5588 212.962 56.4379 212.407 56.453C208.075 56.5512 203.768 56.9176 199.514 57.724C199.102 57.8031 198.709 57.9786 198.167 58.1515C198.314 58.7102 198.428 59.1404 198.543 59.5761C199.347 62.7522 200.162 65.9255 200.947 69.1128C201.094 69.7134 201.129 70.3435 201.224 71.0239C200.829 71.1281 200.58 71.1999 200.328 71.2605C196.035 72.2445 191.739 73.2117 187.444 74.2083C186.111 74.5184 184.796 74.8718 183.479 75.2434C182.566 75.5023 182.336 75.9695 182.547 77.115C183.093 76.6779 183.545 76.0985 184.127 75.903C184.683 75.7203 185.374 75.9383 186.175 75.9898C186.529 74.9997 187.492 75.0802 188.431 75.0713C188.875 75.0676 189.315 74.9871 189.756 75.0142C190.144 75.0371 190.55 75.1034 190.904 75.255C192.134 75.7905 193.388 76.3023 194.565 76.9595C195.495 77.4788 196.409 78.11 197.182 78.8561C198.163 79.8044 198.116 80.1035 197.373 81.2201C196.48 82.5676 195.581 83.9165 194.681 85.2598C194.037 86.2128 193.566 87.3889 192.162 87.3652C192.087 87.3612 191.986 87.4354 191.941 87.5012C191.878 87.6075 191.785 87.7754 191.823 87.855C191.89 87.9988 192.043 88.1913 192.171 88.1994C192.426 88.2157 192.693 88.1453 192.949 88.0777C194.445 87.6946 195.934 87.3073 197.429 86.9186C198.266 86.6976 199.103 86.4765 200.111 86.2103C199.575 83.9854 199.053 81.7506 198.494 79.5256C197.933 77.3132 197.329 75.1121 196.742 72.8887L202.058 71.4848C202.682 73.8479 203.303 76.1105 203.88 78.3843C204.453 80.6413 204.836 82.9547 205.658 85.0505C207.815 84.708 209.814 84.3714 211.812 84.0768C213.816 83.7807 215.826 83.465 217.843 83.2611C219.837 83.0573 221.847 83.0225 223.941 82.7207C223.796 82.257 223.727 81.9525 223.606 81.6677C222.059 77.9705 220.502 74.2761 218.954 70.5732C218.429 69.3194 218.44 69.2565 217.111 69.3207C215.348 69.4039 213.592 69.6044 211.829 69.7114C209.007 69.8889 206.213 70.2383 203.466 70.9397C203.05 71.0496 202.619 71.1035 202.048 71.2067C201.911 70.5614 201.799 70.0292 201.689 69.5026C207.165 68.941 212.46 68.4035 217.858 67.8505L217.865 67.8547ZM118.729 153.143C118.705 153.03 118.686 152.916 118.662 152.802C117.925 152.692 117.183 152.583 116.451 152.466C113.764 152.034 111.072 151.842 108.39 152.228C106.56 152.49 104.772 152.825 103.308 154.215C101.083 156.333 101.013 158.359 102.761 161.047C103.133 161.612 103.648 162.092 104.147 162.558C105.334 163.661 106.747 164.345 108.202 164.953C112.002 166.531 115.934 167.489 119.979 167.73C124.528 167.999 129.076 168.071 133.626 168.214C139.285 168.387 144.942 168.357 150.577 167.945C154.931 167.626 159.292 167.269 163.614 166.702C168.813 166.016 173.977 165.095 179.16 164.264C179.554 164.202 179.932 164.012 180.314 163.882C180.108 163.577 179.954 163.469 179.803 163.461C177.996 163.376 176.176 163.181 174.379 163.268C171.872 163.386 169.381 163.762 166.872 163.959C162.299 164.312 157.721 164.648 153.141 164.931C149.795 165.134 146.443 165.379 143.092 165.35C138.279 165.312 133.463 165.089 128.652 164.842C126.229 164.717 123.798 164.456 121.454 163.617C119.306 162.846 117.397 161.73 115.948 159.83C114.534 157.974 114.724 155.928 116.515 154.547C116.827 154.303 117.191 154.123 117.529 153.914C117.931 153.665 118.331 153.41 118.733 153.16L118.729 153.143ZM193.784 164.884C193.325 165.759 192.775 165.88 192.195 165.95C191.582 166.028 190.966 166.095 190.362 166.224C185.84 167.203 181.326 168.21 176.802 169.183C171.15 170.395 165.44 171.24 159.672 171.711C153.552 172.209 147.418 172.419 141.269 172.226C134.815 172.023 128.365 171.683 121.914 171.384C113.673 171.003 105.907 168.81 98.7425 164.319C96.7662 163.078 94.9963 161.603 93.878 159.442C92.5209 156.831 92.5996 154.342 94.777 152.326C95.294 151.843 95.8909 151.447 96.4411 151.003C96.6515 150.827 96.8372 150.623 97.0311 150.428C96.9953 150.336 96.9634 150.237 96.9277 150.145C94.4367 150.325 91.9268 150.39 89.4573 150.737C88.2259 150.913 87.0539 151.551 85.8926 152.079C85.0419 152.465 84.623 153.233 84.9297 154.222C85.2408 155.227 85.5158 156.29 86.0599 157.162C87.9014 160.118 90.5729 162.156 93.3681 164.035C96.44 166.099 99.8742 167.266 103.239 168.624C111.413 171.928 119.843 173.802 128.546 174.055C133.053 174.186 137.566 174.321 142.07 174.201C146.965 174.074 151.859 173.726 156.74 173.352C159.552 173.135 162.347 172.702 165.142 172.334C170.347 171.653 175.558 171.018 180.745 170.246C184.405 169.698 188.035 168.948 191.681 168.303C191.953 168.254 192.245 168.303 192.755 168.312C192.365 168.887 192.101 169.267 191.809 169.697C192.741 169.875 193.7 169.49 194.388 170.564C192.495 171.625 190.334 171.521 188.258 172.362C194.958 171.836 204.847 169.882 206.961 168.6C203.067 169.318 199.224 170.321 195.085 170.804C195.643 169.569 196.868 169.736 197.533 168.861C196.339 168.835 195.215 169.33 194.014 168.672C195.104 167.44 196.802 167.673 198.007 166.728C197.125 166.13 195.98 166.588 195.323 165.333C196.138 165.309 196.797 165.296 197.606 165.274C196.119 164.435 186.225 162.416 184.405 162.61C184.797 162.865 185.206 163.116 185.647 163.209C187.907 163.669 190.179 164.085 192.442 164.534C192.851 164.611 193.25 164.739 193.793 164.876L193.784 164.884ZM172.493 95.2484C172.093 95.354 171.793 95.4091 171.511 95.5075C168.066 96.7399 164.618 97.9612 161.18 99.2216C158.575 100.178 155.979 101.169 153.388 102.182C152.406 102.566 152.427 102.645 152.636 103.719C153.056 105.849 153.448 107.981 153.85 110.109C154.216 112.057 154.582 114.004 154.959 115.948C154.983 116.062 155.127 116.155 155.275 116.325C155.58 116.227 155.909 116.134 156.231 116.013C160.369 114.49 164.493 112.935 168.646 111.444C170.679 110.716 172.744 110.069 174.811 109.451C175.536 109.236 175.848 108.819 175.783 108.077C175.728 107.434 175.686 106.782 175.528 106.16C174.637 102.72 173.714 99.2886 172.79 95.857C172.746 95.6894 172.636 95.5331 172.496 95.2414L172.493 95.2484ZM152.532 101.38C155.959 100.057 159.177 98.7644 162.427 97.5715C165.678 96.3786 168.964 95.2778 172.191 94.1506C172.061 92.3384 169.049 81.277 168.438 80.3685C162.254 82.6769 155.991 84.8387 149.882 87.5633C150.762 92.1716 151.618 96.643 152.527 101.381L152.532 101.38ZM235.296 112.287C235.249 112.108 235.229 111.922 235.158 111.761C233.949 109.128 232.726 106.505 231.517 103.872C230.996 102.742 230.501 101.6 229.976 100.478C229.659 99.7967 229.239 99.4356 228.406 99.542C223.731 100.137 219.048 100.656 214.372 101.222C213.542 101.321 212.724 101.508 211.912 101.716C211.138 101.915 211.082 102.073 211.304 102.892C212.255 106.406 213.223 109.922 214.142 113.444C214.369 114.304 214.454 115.208 214.62 116.204C221.263 114.725 228.057 113.302 234.973 112.551C235.078 112.541 235.17 112.392 235.291 112.288L235.296 112.287ZM209.683 100.596C209.77 100.668 209.859 100.746 209.947 100.819C211.585 100.541 213.224 100.246 214.867 99.9857C216.52 99.7224 218.171 99.4536 219.83 99.2546C221.489 99.0557 223.159 98.9196 224.822 98.7793C226.451 98.6419 228.086 98.5268 229.886 98.3862C229.291 97.3422 228.734 96.5509 228.359 95.6699C226.867 92.2032 225.417 88.7196 223.976 85.2275C223.523 84.1399 223.416 84.0367 222.297 84.1409C220.721 84.288 219.131 84.3793 217.566 84.5892C213.665 85.1113 209.774 85.6907 205.877 86.2477C206.692 86.5283 206.844 87.1876 207.018 87.8706C207.851 91.0871 208.703 94.2925 209.556 97.5034C209.823 98.5146 210.231 99.5185 209.686 100.589L209.683 100.596ZM150.271 86.0561C156.629 83.6482 162.747 81.3274 168.949 78.9785C167.65 74.8574 166.77 70.727 165.503 66.5736C164.996 66.7074 164.657 66.7612 164.335 66.882C159.152 68.8782 153.976 70.8785 148.797 72.8913C147.881 73.2467 147.831 73.4033 148.023 74.4524C148.477 76.9501 148.908 79.4478 149.384 81.9398C149.636 83.2836 149.96 84.6202 150.27 86.0506L150.271 86.0561ZM57.3373 120.499C57.4287 120.564 57.524 120.623 57.6155 120.688C58.067 120.217 58.5322 119.753 58.9769 119.277C60.6379 117.488 62.6332 116.381 65.0444 116.007C67.5226 115.628 69.9818 115.803 72.4358 116.261C77.7869 117.256 82.94 119.057 88.0302 121.03C97.9179 124.861 107.794 128.755 117.657 132.647C119.651 133.435 121.6 134.355 123.578 135.195C123.881 135.324 124.43 135.502 124.513 135.385C124.746 135.06 124.889 134.586 124.883 134.175C124.877 133.848 124.614 133.499 124.42 133.198C123.817 132.275 123.19 131.371 122.562 130.461C121.862 129.451 121.724 129.404 120.56 129.813C119.521 130.177 118.494 130.567 117.451 130.915C116.732 131.152 116.183 130.951 115.785 130.201C115.139 128.985 114.412 127.809 113.755 126.596C113.222 125.613 113.119 125.526 112.08 125.89C110.917 126.305 109.762 126.748 108.612 127.189C107.253 127.703 107.155 127.675 106.508 126.262C105.913 124.961 105.349 123.646 104.787 122.336C104.279 121.149 104.183 121.085 102.989 121.556C101.511 122.137 100.049 122.757 98.571 123.338C97.6819 123.686 97.5478 123.632 97.1269 122.751C96.2568 120.925 95.3998 119.084 94.5297 117.258C94.363 116.907 94.1498 116.575 93.9174 116.17C93.4036 116.449 93.0151 116.642 92.6476 116.87C91.4885 117.601 90.3392 118.346 89.1801 119.077C88.4573 119.536 88.2601 119.481 87.8516 118.668C87.6024 118.178 87.4128 117.655 87.1728 117.156C86.6816 116.139 86.1759 115.131 85.6583 114.078C85.2726 114.216 85.0181 114.289 84.7899 114.397C84.0367 114.763 83.2961 115.156 82.5414 115.517C81.4166 116.053 81.3 116 80.976 114.795C80.8344 114.258 80.7141 113.716 80.5952 113.18C80.5109 112.796 80.4373 112.409 80.3088 111.75C79.1468 112.75 78.1739 113.58 77.1841 114.433C76.2736 113.383 76.6091 111.932 75.5154 110.966C74.5802 112.025 73.6673 113.061 72.6001 114.269C72.2798 113.553 72.0602 113.067 71.8513 112.579C71.5999 111.994 71.4899 111.21 70.7946 111.083C70.0818 110.954 69.996 111.796 69.6369 112.207C69.215 112.683 69.1226 113.478 68.2558 113.695C67.7687 112.736 67.2845 111.788 66.7315 110.709C65.6399 112.019 65.4866 113.686 64.2938 114.915C63.9087 113.845 63.5927 112.972 63.2805 112.093C63.1795 112.078 63.08 112.068 62.9737 112.054C62.7173 112.552 62.4337 113.033 62.2167 113.551C61.4578 115.365 61.4699 115.368 59.7219 115.423C59.685 115.845 59.6511 116.278 59.6406 116.454C59.0146 116.871 58.3471 117.065 58.1643 117.496C57.7667 118.431 57.6122 119.488 57.3586 120.493L57.3373 120.499ZM125.27 115.051C125.495 114.932 125.722 114.818 125.94 114.695C129.503 112.654 133.044 110.578 136.639 108.594C138.69 107.461 138.725 107.53 138.367 105.114C138.348 104.976 138.328 104.838 138.3 104.708C137.899 102.823 137.23 100.98 137.372 99.0123C137.384 98.8418 137.29 98.6575 137.248 98.4773C136.953 97.36 136.675 96.244 136.364 95.1309C136.289 94.846 136.118 94.5864 135.94 94.215C134.253 95.3 132.663 96.3233 131.067 97.3424C128.753 98.82 126.555 100.452 124.531 102.337C123.766 103.047 123.384 103.871 123.329 104.956C123.141 108.328 123.903 111.539 124.962 114.708C124.999 114.824 125.128 114.903 125.273 115.062L125.27 115.051ZM138.586 108.839C137.948 109.145 137.55 109.322 137.17 109.524C135.925 110.187 134.66 110.82 133.439 111.531C130.957 112.975 128.515 114.487 126.026 115.927C124.809 116.631 124.391 117.751 124.7 119.05C125.048 120.518 125.622 121.938 126.151 123.358C126.25 123.625 126.555 123.873 126.817 124.001C128.683 124.889 130.563 125.743 132.43 126.613C132.834 126.805 133.144 126.747 133.523 126.473C135.538 125.009 137.716 123.842 139.991 122.865C141.061 122.403 141.13 122.361 140.977 121.134C140.79 119.624 140.558 118.12 140.262 116.632C139.762 114.111 139.191 111.602 138.592 108.838L138.586 108.839ZM183.917 97.0364C184.003 97.0796 184.095 97.1269 184.181 97.1701C184.443 96.7601 184.7 96.3515 184.991 95.8982C184.413 95.5668 184.004 95.3342 183.601 95.1059C184.288 93.538 185.551 92.2484 186.867 91.8769C189.027 91.2647 191.2 90.679 193.387 90.1673C193.898 90.0503 194.544 90.1426 195.034 90.3778C196.943 91.2781 198.816 92.2595 200.69 93.2409C202.008 93.9328 202.32 95.1591 201.51 96.4547C200.458 98.1309 199.358 99.7779 198.293 101.446C197.893 102.071 197.444 102.572 196.641 102.641C196.367 102.665 196.122 102.945 195.696 103.213C196.764 103.78 197.472 103.24 198.207 103.106C198.941 102.972 199.669 102.768 200.396 102.606C201.171 102.431 201.945 102.25 202.719 102.094C203.456 101.947 204.205 101.821 204.911 101.688C204.654 100.973 204.414 100.433 204.26 99.87C204.007 98.9329 203.819 97.9844 203.577 97.0445C202.891 94.4047 202.186 91.7762 201.495 89.1379C201.139 87.7915 201.145 87.8139 202.413 87.4969C202.857 87.3856 203.425 87.439 203.875 86.6807C194.966 88.3699 186.547 90.9217 177.921 93.3607C178.334 94.9669 178.72 96.4725 179.111 97.9768C179.524 99.541 179.916 101.111 180.351 102.67C180.766 104.156 181.04 105.691 181.622 107.139C184.46 106.33 187.124 105.572 189.781 104.811C189.807 104.804 189.823 104.734 189.829 104.691C189.836 104.653 189.824 104.608 189.812 104.474C188.475 104.164 187.014 104.077 185.896 103.082C185.921 102.962 185.948 102.847 185.973 102.727C186.763 102.823 187.554 102.925 188.527 103.044C188.11 102.395 187.791 101.9 187.417 101.324C189.138 101.425 191.265 102.483 192.047 103.716C192.452 104.363 192.855 104.507 193.475 104.284C193.75 104.181 194.02 104.08 194.29 103.979C193.885 102.682 193.878 102.677 194.605 101.541C195.386 100.331 196.132 99.094 196.979 97.9381C197.444 97.3013 198.074 96.7942 198.635 96.2397C198.988 95.8896 199.354 95.5479 199.927 94.9962C199.341 94.9359 199.075 94.8386 198.858 94.9019C197.887 95.1764 197.056 94.8161 196.198 94.3553C194.889 93.655 193.548 93.0233 192.207 92.3972C191.966 92.2817 191.67 92.306 191.396 92.2646C192.799 94.2727 195.126 94.6803 196.954 96.074C195.687 98.0161 194.485 99.8575 193.283 101.699C192.973 102.169 192.598 102.173 192.133 101.925C190.264 100.936 188.388 99.9676 186.518 98.9792C186.419 98.9277 186.369 98.7615 186.238 98.5452C186.853 97.6538 187.503 96.747 188.113 95.8151C188.704 94.9 189.378 94.0169 189.436 92.6389C188.379 93.2587 187.957 94.2307 187.349 95.0187C186.721 95.836 186.174 96.7273 185.492 97.493C184.838 98.2336 184.061 98.857 183.307 99.5642C184.402 100.494 185.406 99.3685 186.329 99.7761C186.373 99.9437 186.436 100.053 186.414 100.118C186.355 100.283 186.267 100.45 186.166 100.584C184.562 102.741 184.447 102.759 182.138 101.337C181.578 100.989 180.856 99.6138 181.11 99.0865C181.705 97.8416 182.61 96.8378 183.632 95.5879C183.773 96.2975 183.851 96.6774 183.923 97.0588L183.917 97.0364ZM123.703 101.319C124.081 101.153 124.262 101.124 124.388 101.018C127.993 97.9928 131.836 95.3286 135.96 93.1041C136.604 92.7548 136.638 92.3216 136.486 91.6385C136.074 89.799 135.743 87.9383 135.384 86.0847C135.076 84.5048 134.783 82.9207 134.457 81.3395C134.381 80.9652 134.202 80.612 134.025 80.1386C130.713 82.3043 127.504 84.3048 124.546 86.7115C123.151 87.8448 122.604 89.2084 122.699 90.9703C122.777 92.348 122.828 93.7271 122.968 95.1005C123.171 97.1026 123.437 99.1003 123.702 101.313L123.703 101.319ZM283.973 109.007C284.602 108.841 285.165 108.812 285.606 108.558C287.695 107.355 290.065 107.279 292.33 106.782C295.004 106.195 297.71 105.857 300.457 105.802C302.999 105.752 305.486 106.075 307.888 107.049C311.12 108.358 313.775 110.335 315.046 113.895C315.229 114.415 315.507 114.903 315.776 115.382C315.882 115.569 316.088 115.7 316.386 115.986C316.268 113.943 315.414 112.394 314.612 110.867C313.305 108.379 311.386 106.579 308.735 105.677C304.863 104.363 300.96 104.36 297.065 105.078C293.47 105.74 289.912 106.59 286.335 107.343C286.129 107.386 285.895 107.298 285.623 107.262C285.724 107.062 285.746 106.949 285.805 106.915C286 106.81 286.206 106.726 286.409 106.654C289.524 105.533 292.702 104.67 295.979 104.163C299.174 103.666 302.373 103.383 305.605 103.868C311.74 104.788 315.325 107.887 316.893 113.934C317.548 116.456 317.609 119.129 317.937 121.732C317.949 121.818 317.919 121.922 317.875 121.993C317.812 122.1 317.715 122.185 317.581 122.328C317.317 122.147 317.072 121.978 316.828 121.81C316.56 121.94 316.303 122.068 316.127 122.156C314.987 121.555 314.511 120.748 314.996 119.514C314.506 119.584 314.137 119.634 313.791 119.683C312.398 115.336 310.714 113.193 308.365 111.536C305.359 109.419 301.199 108.355 299.217 109.338C299.689 109.483 299.991 109.636 300.301 109.662C303.53 109.944 306.374 111.339 309.075 113.123C309.289 113.264 309.475 113.49 309.625 113.713C310.166 114.509 310.725 115.288 311.208 116.122C311.712 116.993 312.179 117.898 312.583 118.825C312.914 119.58 312.759 120.637 313.933 120.781C314.074 120.798 314.188 121.144 314.317 121.331C314.792 122.006 315.234 122.708 315.752 123.349C316.144 123.843 316.631 124.258 317.146 124.785C316.412 127.471 315.024 129.947 313.534 132.361C313.313 132.712 313.023 133.129 312.315 132.886C312.511 132.422 312.672 131.973 312.893 131.556C313.887 129.68 314.902 127.822 315.89 125.948C315.993 125.753 315.977 125.477 316.026 125.165C315.816 125.256 315.693 125.265 315.663 125.326C313.947 128.373 312.235 131.419 310.524 134.465C311.658 135.432 311.67 135.435 312.598 134.586C312.732 134.467 312.873 134.352 312.98 134.216C315.542 131 317.702 127.561 318.485 123.332C319.414 118.318 318.742 113.523 316.268 109.037C315.549 107.739 314.62 106.341 313.44 105.588C311.754 104.516 309.805 103.703 307.879 103.298C304.039 102.495 300.146 102.507 296.259 102.93C292.86 103.302 289.576 104.151 286.32 105.106C283.837 105.834 281.306 106.466 278.979 107.678C277.534 108.43 276.083 109.178 274.652 109.956C273.564 110.548 272.487 111.155 271.439 111.809C269.94 112.742 268.463 113.718 266.984 114.682C266.394 115.065 265.808 115.459 265.232 115.868C264.665 116.269 264.122 116.699 263.558 117.111C263.338 117.271 263.101 117.411 262.872 117.561C264.247 117.389 265.401 117.007 266.493 116.001C267.874 114.728 269.615 113.826 271.311 112.99C274.748 111.293 278.26 109.751 281.744 108.149C282.502 107.8 283.293 107.597 284.247 107.733C284.155 108.164 284.084 108.499 283.978 109.005L283.973 109.007ZM256.287 109.039C257.061 109.294 257.492 108.918 257.905 108.492C258.888 107.461 259.859 106.41 260.859 105.399C266.939 99.2397 273.283 93.4109 280.581 88.7946C283.577 86.8979 286.708 85.2762 289.957 83.9044C292.148 82.9791 294.434 82.28 296.678 81.4901C301.161 79.9119 305.784 79.3785 310.505 80.1698C316.085 81.1046 321.332 83.0658 326.004 86.5653C326.217 86.7242 326.486 86.8145 326.861 87.0024C326.774 86.6727 326.773 86.5176 326.702 86.4228C326.532 86.2107 326.338 86.0168 326.137 85.837C323.335 83.284 320.079 81.5619 316.632 80.2609C313.312 79.0043 309.854 78.5487 306.341 78.293C301.404 77.9354 296.772 79.1046 292.231 80.6984C289.584 81.6302 287.063 82.9474 284.526 84.185C280.63 86.0863 277.026 88.5083 273.646 91.2414C270.304 93.9465 267.02 96.7381 263.88 99.6888C261.484 101.935 259.342 104.473 257.116 106.907C256.611 107.459 256.177 108.105 256.3 109.047L256.287 109.039ZM199.064 120.33C198.138 118.877 198.822 117.902 199.406 116.959C200.678 114.884 202.048 112.879 203.998 111.408C204.383 111.115 204.761 110.776 204.547 110.031C203.681 109.991 202.767 110.071 201.897 109.889C200.972 109.691 200.096 109.247 198.777 108.746C199.374 108.176 199.761 107.805 200.131 107.456C199.315 106.656 198.642 106.636 198.146 107.174C197.606 107.765 197.07 107.811 196.367 107.632C195.896 107.511 195.392 107.548 194.899 107.517C196.742 109.397 199.113 110.146 201.23 111.445C201.047 111.81 200.954 112.062 200.811 112.279C199.718 113.93 198.626 115.581 197.523 117.217C196.983 118.023 196.967 118.027 196.032 117.575C194.217 116.686 192.402 115.796 190.597 114.88C190.38 114.771 190.22 114.532 190.007 114.331C191.199 112.128 193.055 110.407 193.685 107.91C192.903 107.477 192.51 107.909 192.166 108.4C191.244 109.726 190.316 111.052 189.437 112.408C188.905 113.224 188.271 113.869 187.382 114.241C186.904 114.439 186.431 114.678 186.309 115.469C190.091 115.946 193.307 117.756 196.497 119.855C194.956 120.5 193.464 121.223 191.755 120.366C189.744 119.361 187.73 118.369 185.723 117.357C184.216 116.595 183.892 115.282 184.842 113.866C185.87 112.34 186.938 110.833 187.926 109.281C188.571 108.268 189.204 107.36 190.54 107.318C191.037 107.3 191.539 107.042 191.557 106.201C191.096 106.25 190.706 106.24 190.343 106.336C187.868 106.965 185.387 107.591 182.923 108.265C181.732 108.592 181.704 108.725 182.04 110.04C183.052 114.022 184.069 118.003 185.086 121.983C185.249 122.604 185.412 123.218 185.617 123.995C190.125 123.007 194.343 121.332 199.053 120.333L199.064 120.33ZM230.048 68.6058C233.382 69.3509 236.555 70.067 239.768 70.7844C239.783 70.5412 239.836 70.3957 239.8 70.2798C239.094 68.0398 238.428 65.7773 237.634 63.5669C237.138 62.1858 236.46 60.8708 235.844 59.5333C235.472 58.7292 234.825 58.3085 234.024 58.018C231.553 57.1286 228.991 56.9563 226.444 56.6847C226.332 56.6724 226.213 56.7816 225.974 56.8925C226.169 57.4567 226.323 58.0195 226.556 58.5557C227.597 60.9641 228.645 63.3767 229.727 65.7683C230.114 66.6283 230.438 67.4689 230.054 68.6044L230.048 68.6058ZM232.682 70.283C232.765 70.7272 232.764 70.9186 232.835 71.0792C234.059 74.0071 235.309 76.9279 236.508 79.8685C236.867 80.7537 237.173 81.6768 237.357 82.6085C237.479 83.2454 237.689 83.5846 238.311 83.737C240.872 84.3635 243.304 85.3648 245.592 86.7506C245.965 86.9748 246.363 87.2703 246.827 86.7831C246.801 86.6406 246.793 86.4575 246.729 86.3011C245.587 83.3395 244.45 80.3709 243.287 77.415C242.901 76.4292 242.49 75.456 242.023 74.5095C241.308 73.0548 240.309 71.9501 238.659 71.6208C237.183 71.3234 235.726 70.9015 234.259 70.5537C233.803 70.447 233.332 70.392 232.676 70.2844L232.682 70.283ZM238.827 84.9993C238.726 85.0735 238.631 85.1464 238.533 85.2262C238.959 86.279 239.384 87.3262 239.805 88.3804C241.044 91.4955 242.304 94.605 243.507 97.7356C243.736 98.3207 244.002 98.615 244.622 98.7143C246.191 98.9753 247.751 99.3103 249.306 99.6468C249.807 99.7534 250.291 99.9662 250.736 100.118C251.318 99.51 251.306 98.9035 251.126 98.2457C250.469 95.8435 249.771 93.4581 248.645 91.2273C247.905 89.7616 246.923 88.5268 245.44 87.7948C244.916 87.5387 244.42 87.2155 243.898 86.965C242.253 86.1802 240.589 85.4303 238.827 84.9993ZM244.536 99.9023C244.474 100.014 244.416 100.119 244.355 100.231C244.891 101.44 245.405 102.655 245.972 103.85C247.211 106.469 248.506 109.061 249.24 111.885C249.406 112.511 249.766 112.774 250.349 112.907C251.69 113.211 253.021 113.564 254.347 113.92C255.224 114.154 255.898 113.659 255.893 112.71C255.889 112.395 255.777 112.078 255.696 111.77C255.367 110.525 255.038 109.279 254.709 108.033C254.356 106.698 254.081 105.33 253.625 104.034C253.196 102.821 252.616 101.617 251.259 101.235C249.978 100.874 248.68 100.559 247.379 100.299C246.439 100.111 245.484 100.035 244.532 99.9093L244.536 99.9023ZM231.872 155.7C231.889 155.832 231.901 155.961 231.919 156.094C232.164 156.136 232.405 156.186 232.647 156.218C235.775 156.611 238.899 156.539 242.017 156.337C244.613 156.166 247.207 155.989 249.797 155.771C251.382 155.639 252.96 155.48 254.53 155.227C258.097 154.649 261.665 154.077 265.208 153.387C269.358 152.578 273.499 151.712 277.613 150.745C281.685 149.789 285.755 148.852 289.651 147.231C293.984 145.43 298.081 143.207 301.96 140.551C302.138 140.426 302.251 140.205 302.543 139.841C301.961 139.995 301.599 140.025 301.303 140.18C299.165 141.307 297.045 142.482 294.905 143.603C291.373 145.456 287.608 146.731 283.835 147.93C279.725 149.237 275.531 150.314 271.336 151.321C267.313 152.287 263.248 153.074 259.189 153.883C257.504 154.22 255.803 154.562 254.093 154.631C251.193 154.751 248.278 154.708 245.365 154.652C241.915 154.589 238.478 154.643 235.061 155.055C233.983 155.184 232.928 155.487 231.868 155.707L231.872 155.7ZM172.312 79.1185C172.322 79.1995 172.339 79.2847 172.349 79.3657C172.436 79.3725 172.526 79.3905 172.613 79.3736C174.249 79.1509 174.265 79.1467 174.707 80.8884C175.346 83.3912 175.942 85.9109 176.591 88.411C176.917 89.6457 177.314 90.8676 177.727 92.2586C180.779 91.2435 183.793 90.603 186.749 89.6133C186.415 88.9125 186.027 88.7162 185.586 89.0539C185.049 89.4644 184.593 89.2264 184.105 88.9786C183.099 88.4734 182.092 87.9863 181.094 87.4671C180.056 86.9284 179.019 86.3953 178.011 85.795C177.178 85.2978 176.974 84.7183 177.257 83.8248C177.636 82.625 178.472 81.7709 179.327 80.7561C179.576 81.2643 179.745 81.6021 179.993 82.1102C180.497 81.493 180.899 81.0045 181.39 80.4026C180.762 80.1202 180.297 79.9143 179.728 79.6583C180.343 78.4679 181.703 77.7623 181.602 75.9542C178.367 77.0535 175.337 78.0867 172.307 79.1199L172.312 79.1185ZM184.077 61.6929C184.384 61.4981 184.651 61.2544 184.961 61.1545C185.318 61.0364 185.769 60.8874 186.078 61.0209C188.212 61.9515 190.34 62.9017 192.424 63.9469C193.43 64.4522 193.601 65.3811 192.957 66.376C192.223 67.5079 191.404 68.573 190.626 69.6687C189.783 70.8596 189.052 72.1761 187.596 72.7757C190.495 72.4345 193.279 71.7651 196.021 70.7423C195.993 70.4209 196.001 70.1917 195.945 69.9795C195.055 66.5869 194.17 63.193 193.259 59.8061C193.003 58.8397 192.905 58.77 191.931 58.9494C189.768 59.3534 187.619 59.8133 185.459 60.2522C185.026 60.3425 184.58 60.4007 184.178 60.5664C183.655 60.7883 183.603 61.1726 184.075 61.6873L184.077 61.6929ZM195.778 104.948C196.469 105.836 197.032 105.872 197.565 105.343C197.969 104.95 198.342 104.827 198.862 105.09C201.151 106.243 203.47 107.334 205.732 108.535C206.92 109.166 207.207 110.686 206.499 111.847C205.932 112.768 205.372 113.692 204.811 114.617C203.774 116.325 202.648 117.938 200.857 118.889C200.682 118.983 200.601 119.261 200.313 119.702C200.916 119.59 201.248 119.55 201.563 119.467C203.738 118.893 205.904 118.303 208.085 117.745C209.089 117.486 209.16 117.431 208.87 116.354C207.84 112.521 206.8 108.69 205.744 104.863C205.578 104.255 205.301 103.683 205.045 103.015C201.939 103.674 198.915 104.126 195.778 104.948ZM185.64 77.3799L185.339 77.1247C185.061 77.3657 184.726 77.5676 184.508 77.8642C183.771 78.8774 183.023 79.8879 182.383 80.9652C181.671 82.1572 180.931 83.2431 179.443 83.4207C179.293 83.4364 179.166 83.6015 178.922 83.7795C179.392 84.3725 179.942 84.5977 180.55 84.7181C181.375 84.8827 182.21 84.997 183.03 85.1868C183.474 85.2907 183.997 85.326 184.247 85.8873C183.458 86.8726 182.407 85.7876 181.395 86.2759C182.564 87.1148 183.62 87.7024 184.801 87.8747C185.18 87.41 185.477 87.0447 185.782 86.6653C186.982 87.2568 188.176 87.6946 188.428 89.3193C189.18 89.0788 189.818 88.8805 190.644 88.6147C189.821 87.7682 189.973 87.1544 190.522 86.4476C191.178 85.605 191.679 84.63 192.268 83.7275C192.418 83.4967 192.648 83.3285 192.919 83.0597C193.177 83.6908 193.371 84.1655 193.574 84.6556C194.411 84.4345 194.363 83.7121 194.604 83.2184C194.965 82.4714 193.902 82.2262 193.913 81.5121C194.704 81.0047 195.925 80.8555 195.692 79.3272C195.392 79.3348 195.12 79.2753 194.895 79.3526C193.957 79.6898 193.128 79.5084 192.242 79.0072C190.878 78.2259 189.45 77.5692 188.034 76.8971C187.753 76.7622 187.414 76.774 187.103 76.7187L186.948 77.0167C187.329 77.424 187.659 77.9404 188.11 78.2217C188.985 78.7678 189.93 79.1935 190.849 79.65C191.479 79.9617 192.18 80.1531 192.591 80.7616C192.571 80.9223 192.59 81.0369 192.545 81.1027C191.415 82.8293 190.278 84.5518 189.147 86.2729C188.837 86.7431 188.463 86.7284 187.998 86.4806C186.729 85.7998 185.447 85.1582 184.179 84.483C183.555 84.1517 182.956 83.784 182.224 83.3676C183.424 81.2998 185.249 79.766 185.626 77.3897L185.64 77.3799ZM181.191 74.5507C180.332 74.3414 179.576 74.266 178.901 73.9781C177.169 73.2522 175.46 72.4605 173.766 71.6408C172.517 71.0382 172.212 69.8161 172.999 68.6938C174.081 67.1531 175.227 65.6612 176.289 64.1079C176.886 63.2389 177.494 62.5586 178.657 62.9028C178.77 62.9389 178.936 62.7695 179.096 62.6853C178.563 62.0911 178.561 62.0855 178.014 62.2599C176.797 62.641 175.571 62.9886 174.371 63.4131C173.098 63.8628 171.849 64.3837 170.551 64.888C170.622 65.3295 170.637 65.648 170.722 65.9483C171.671 69.3672 172.625 72.7848 173.596 76.2037C173.844 77.0766 173.971 77.1504 174.845 76.8719C176.686 76.2841 178.525 75.667 180.356 75.04C180.624 74.9515 180.857 74.7526 181.197 74.5493L181.191 74.5507ZM314.804 118.681C314.92 118.668 315.037 118.655 315.152 118.637C315.106 118.159 315.107 117.668 314.995 117.202C314.519 115.248 313.476 113.587 312.48 111.866C311.406 110.004 309.852 109.022 308.065 108.239C305.164 106.973 302.126 106.723 299.068 106.808C294.84 106.932 290.839 108.287 286.77 109.207C284.568 109.704 282.506 110.84 280.387 111.693C280.247 111.748 280.135 111.861 280.004 111.949C280.613 112.052 281.141 111.936 281.656 111.77C283.579 111.143 285.458 110.33 287.423 109.889C291.154 109.047 294.913 108.335 298.736 107.905C304.481 107.261 310.781 110.659 313.595 116.239C314.002 117.046 314.399 117.861 314.801 118.669L314.804 118.681ZM160.859 149.16C160.856 148.844 160.906 148.669 160.842 148.597C158.964 146.302 157.085 144.007 155.161 141.754C154.963 141.52 154.414 141.407 154.108 141.5C152.471 141.998 150.854 142.574 149.234 143.134C148.811 143.281 148.303 143.475 148.399 144.012C148.458 144.343 148.838 144.661 149.138 144.886C149.416 145.1 149.782 145.188 150.116 145.309C151.077 145.665 152.044 146.019 153.009 146.368C155.565 147.277 158.12 148.186 160.858 149.154L160.859 149.16ZM185.665 73.4112C185.218 72.5611 185.591 71.9427 186.082 71.317C186.773 70.4353 187.401 69.5103 188.057 68.6021C188.679 67.7386 189.195 66.7538 190.34 66.4874C190.494 66.4466 190.689 66.2995 190.737 66.1554C190.842 65.8408 190.945 65.4731 190.874 65.163C190.842 65.0401 190.311 64.8874 190.094 64.9745C189.127 65.3733 188.311 65.0033 187.435 64.583C186.108 63.9415 184.739 63.3825 183.376 62.822C183.146 62.7275 182.845 62.8189 182.325 62.8367C184.043 64.7198 186.249 65.0395 188.021 66.0659C188.028 66.2671 188.07 66.3816 188.028 66.4404C186.863 68.1405 185.691 69.8366 184.516 71.5214C184.183 71.9916 183.779 71.8652 183.341 71.6523C181.726 70.8716 180.095 70.1189 178.485 69.3368C178.263 69.2282 178.09 69.005 177.782 68.7457C178.482 67.8555 179.195 67.0576 179.778 66.1747C180.341 65.3267 181.114 64.537 181.02 63.0797C180.605 63.4103 180.301 63.5744 180.106 63.8292C179.283 64.8831 178.47 65.9523 177.693 67.048C177.115 67.8639 176.545 68.642 175.517 68.8956C175.25 68.966 175.021 69.1998 174.753 69.3722C175.102 70.3916 175.877 70.2168 176.541 70.2923C177.054 70.3542 177.593 70.3433 178.074 70.5212C179.117 70.909 180.13 71.3947 181.157 71.8286C182.031 72.2013 182.892 72.5895 183.358 73.5304C183.668 74.1656 184.092 74.2807 184.656 73.9344C184.957 73.7536 185.271 73.6048 185.657 73.4014L185.665 73.4112ZM174.056 153.122C173.936 152.669 173.937 152.52 173.864 152.419C172.791 150.946 171.697 149.483 170.628 148.003C170.224 147.446 169.776 147.307 169.136 147.494C167.281 148.032 165.409 148.502 163.55 149.023C163.374 149.07 163.228 149.252 162.929 149.48C166.526 151.285 170.21 152.105 174.056 153.122ZM147.344 143.645C147.39 143.519 147.436 143.388 147.477 143.263C146.369 141.942 145.282 140.61 144.157 139.311C143.771 138.863 143.319 138.469 142.859 138.112C142.63 137.933 142.237 137.72 142.031 137.805C140.769 138.317 139.501 138.831 138.322 139.507C137.609 139.917 137.756 140.583 138.55 140.911C140.121 141.566 141.687 142.228 143.28 142.817C144.197 143.155 145.157 143.38 146.104 143.596C146.505 143.687 146.934 143.628 147.348 143.638L147.344 143.645ZM190.675 157.237C191.217 157.453 191.512 157.62 191.821 157.688C194.026 158.175 196.232 158.644 198.447 159.105C199.618 159.346 200.788 159.587 201.967 159.754C202.239 159.789 202.547 159.529 202.834 159.405C202.654 159.178 202.508 158.906 202.292 158.736C201.448 158.068 200.587 157.423 199.725 156.772C199.041 156.253 198.387 155.679 197.658 155.25C197.32 155.052 196.796 155.011 196.426 155.121C194.827 155.591 193.248 156.134 191.667 156.671C191.399 156.759 191.17 156.951 190.677 157.243L190.675 157.237ZM135.861 139.541C135.83 139.358 135.864 139.14 135.769 139.022C134.383 137.272 132.984 135.538 131.59 133.803C131.232 133.353 130.816 133.439 130.394 133.634C129.119 134.228 127.844 134.822 126.578 135.431C126.436 135.498 126.345 135.672 126.221 135.806C126.331 135.962 126.386 136.127 126.482 136.167C129.468 137.345 132.452 138.511 135.443 139.664C135.537 139.699 135.683 139.601 135.854 139.537L135.861 139.541ZM188.457 156.915C188.515 156.81 188.566 156.701 188.624 156.596C188.422 156.374 188.242 156.123 188.015 155.932C186.762 154.882 185.47 153.878 184.242 152.792C183.668 152.281 183.122 152.156 182.416 152.336C180.925 152.718 179.407 153.017 177.911 153.377C177.665 153.441 177.455 153.64 177.228 153.772C177.238 153.877 177.254 153.98 177.265 154.085C181 155.029 184.729 155.975 188.462 156.913L188.457 156.915ZM232.97 163.208C233.001 163.087 233.031 162.965 233.061 162.838C232.084 162.056 231.111 161.267 230.132 160.498C229.327 159.868 228.471 159.735 227.507 160.038C225.749 160.597 223.974 161.09 222.212 161.633C221.986 161.705 221.786 161.877 221.573 161.999C221.585 162.109 221.59 162.215 221.602 162.326C225.366 163.101 229.18 162.918 232.97 163.208ZM260.248 161.563C260.273 161.443 260.298 161.323 260.33 161.207C259.356 160.52 258.397 159.805 257.398 159.154C257.232 159.043 256.865 159.146 256.651 159.262C254.93 160.153 253.216 161.072 251.508 161.995C251.314 162.1 251.168 162.306 251.001 162.469C254.152 162.307 257.225 162.128 260.248 161.563ZM272.381 159.101C272.409 158.968 272.436 158.835 272.464 158.702C271.373 158.136 270.298 157.541 269.192 157.026C268.978 156.927 268.584 157.079 268.352 157.236C267.119 158.076 265.897 158.936 264.694 159.822C264.368 160.057 263.941 160.254 263.913 160.948C266.798 160.318 269.592 159.706 272.379 159.095L272.381 159.101ZM296.118 151.243C294.557 150.537 293.02 150.334 291.557 151.186C290.114 152.028 288.711 152.96 287.312 153.885C287.075 154.043 286.931 154.362 286.743 154.603C286.813 154.692 286.875 154.777 286.944 154.867C290.026 153.772 293.179 152.856 296.12 151.248L296.118 151.243ZM246.436 162.94C246.454 162.815 246.467 162.692 246.486 162.568C245.69 161.995 244.877 161.445 244.102 160.843C243.533 160.395 243.002 160.35 242.385 160.692C241.46 161.206 240.508 161.66 239.581 162.168C239.177 162.388 238.815 162.681 238.433 162.943L238.54 163.262C241.171 163.158 243.818 163.243 246.436 162.94ZM92.6146 145.326C93.0528 145.754 93.3756 146.069 93.8372 146.521C91.3499 147.189 89.0085 146.164 86.6913 146.657C86.851 147.499 87.3329 147.682 87.9617 147.666C91.0038 147.586 94.0415 147.77 97.059 148.288C97.2799 148.325 97.5255 148.218 97.7593 148.174C97.7581 148.127 97.757 148.079 97.7558 148.032C97.2134 147.9 96.6656 147.77 96.1596 147.647C95.7962 145.86 94.3853 144.924 92.6093 145.327L92.6146 145.326ZM298.869 149.823C300.336 149.89 305.973 147.344 306.69 146.539C305.943 146.192 305.244 145.773 304.492 145.559C304.153 145.464 303.642 145.688 303.336 145.936C302.228 146.815 301.172 147.763 300.106 148.696C299.69 149.063 299.284 149.451 298.875 149.822L298.869 149.823ZM187.57 80.3008C187.535 80.5789 187.568 80.8988 187.456 81.1436C187.121 81.8654 186.463 82.1168 185.761 82.3083C185.334 82.4209 184.79 82.3018 184.427 83.025C184.935 83.154 185.378 83.4074 185.732 83.32C186.524 83.1228 187.36 82.878 188.022 82.4225C188.59 82.0273 189.045 81.8056 189.707 82.067C189.892 82.1379 190.122 82.0829 190.517 82.0863C190.413 81.5639 190.335 81.1602 190.237 80.6601C189.705 80.8904 189.326 81.056 188.937 81.2245C188.328 80.4711 188.711 78.7683 187.022 79.2622C185.895 79.5956 185.391 80.1528 185.497 81.135C186.184 80.9296 186.547 79.9493 187.57 80.3008ZM314.721 141.329C313.338 140.821 312.372 140.688 311.47 141.721C310.305 143.056 309.013 144.276 307.795 145.56C307.652 145.711 307.618 145.971 307.536 146.178C307.603 146.238 307.672 146.304 307.739 146.363C310.076 144.868 312.369 143.312 314.719 141.323L314.721 141.329ZM282.831 155.947C280.871 154.659 277.419 155.864 276.513 158.027C278.666 157.561 280.683 156.926 282.831 155.947ZM197.878 111.476C197.386 111.773 197.022 112.186 196.728 112.132C195.756 111.952 195.054 112.401 194.315 112.889C194.107 113.027 193.818 113.056 193.562 113.105C193.075 113.204 192.315 113.07 192.546 113.924C192.726 114.605 193.378 114.308 193.793 114.174C195.417 113.649 197.02 113.065 198.632 112.496C198.691 112.48 198.713 112.349 198.808 112.168C198.511 111.948 198.199 111.72 197.88 111.481L197.878 111.476ZM316.369 139.943C316.451 140.017 316.537 140.084 316.619 140.158C318.127 138.977 319.494 137.63 321.01 136.327C319.381 135.604 318.66 135.812 317.939 137.078C317.561 137.74 317.145 138.37 316.767 139.031C316.603 139.32 316.5 139.64 316.369 139.943ZM126.799 152.966C127.861 153.553 131.766 154.32 132.945 154.14C131.882 153.638 131.015 153.311 130.228 152.838C129.089 152.153 128.058 152.419 126.799 152.966ZM188.712 97.7605C189.482 98.6686 190.14 98.8056 191.055 98.2951C191.587 97.9992 192 97.466 192.547 97.2259C193.063 96.9999 193.679 97.0224 194.294 96.9318C193.615 95.9158 193.394 95.8128 192.598 96.2979C191.399 97.027 190.233 97.8189 188.705 97.7563L188.712 97.7605ZM118.681 151.471C118.351 150.697 116.712 149.696 115.414 149.471C114.721 149.349 113.957 149.156 113.316 150.037C115.163 150.529 116.889 150.994 118.681 151.471ZM88.3297 145.214C87.6056 144.33 86.7981 144.166 85.9674 144.045C85.4815 143.976 85.059 144.04 84.9548 144.617C84.8377 145.276 85.2758 145.53 85.7842 145.641C86.6204 145.827 87.4093 145.66 88.3297 145.214ZM179.816 68.0234C180.402 68.9263 180.96 69.03 181.599 68.8135C182.221 68.6012 182.84 68.3722 183.436 68.1013C183.68 67.989 183.862 67.7497 184.287 67.3925C182.556 66.953 181.343 67.7576 179.816 68.0234ZM105.603 148.284C104.25 146.658 102.392 146.234 101.309 148.223C101.689 148.344 102.051 148.463 102.431 148.584C102.579 148.282 102.71 148.02 102.85 147.75C103.805 147.934 104.707 148.109 105.603 148.284ZM82.9777 145.641C82.7992 144.684 81.2455 144.007 80.6808 144.568C80.4999 144.748 80.457 145.255 80.5628 145.526C80.8346 146.231 82.0168 146.582 82.62 146.166C82.8034 146.04 82.8961 145.764 82.9762 145.636L82.9777 145.641ZM323.964 133.623C325.142 133.073 325.944 131.941 325.889 130.891C324.498 131.175 323.871 132.064 323.964 133.623ZM332.815 123.786C333.959 123.238 334.414 122.736 334.405 121.967C334.401 121.735 334.256 121.469 334.103 121.276C334.042 121.196 333.766 121.233 333.631 121.305C332.888 121.686 332.53 122.731 332.816 123.791L332.815 123.786ZM330.159 126.322C329.562 126.437 328.929 127.346 329.032 127.976C329.103 128.417 329.454 128.731 329.773 128.467C330.226 128.091 330.607 127.566 330.862 127.02C331.051 126.612 330.609 126.233 330.157 126.316L330.159 126.322ZM183.259 172.983C185.288 173.212 185.761 172.89 186.413 171.014L185.138 171.351C185.102 171.755 185.075 172.103 185.04 172.512L183.259 172.983ZM180.722 171.734C179.44 172.043 177.792 171.767 177.454 174.091C178.675 173.207 179.701 172.47 180.722 171.734ZM191.91 95.1828C191.413 94.6388 190.965 94.2191 190.439 94.4717C189.952 94.7018 189.615 95.1972 189.848 95.9485C190.529 95.697 191.131 95.4722 191.91 95.1828ZM98.9679 168.413C99.5801 169.327 100.038 169.505 101.044 169.21C100.409 168.254 100.022 168.105 98.9679 168.413ZM266.721 165.316C266.735 165.372 266.749 165.423 266.763 165.478L271.931 164.114C271.916 164.058 271.903 164.008 271.888 163.952L266.721 165.316ZM185.047 66.104C184.86 66.6256 184.646 66.939 184.683 67.2282C184.702 67.3903 185.208 67.6632 185.373 67.5958C185.588 67.5031 185.8 67.1184 185.79 66.8641C185.782 66.6629 185.431 66.4749 185.049 66.1096L185.047 66.104ZM194.571 105.65C194.09 105.49 193.744 105.259 193.604 105.355C193.366 105.514 193.258 105.883 193.097 106.158C193.362 106.256 193.653 106.472 193.879 106.418C194.09 106.374 194.236 106.043 194.57 105.644L194.571 105.65ZM154.194 177.257C154.181 177.141 154.167 177.025 154.154 176.909L150.477 177.264C150.49 177.357 150.498 177.45 150.51 177.542C151.74 177.445 152.965 177.354 154.194 177.257ZM141.948 156.263C142.594 156.397 143.245 156.53 143.891 156.665C143.34 155.919 142.675 155.886 141.948 156.263ZM166.584 175.874C166.612 175.98 166.649 176.078 166.683 176.182C167.422 176.089 168.166 175.988 168.905 175.894C168.887 175.804 168.874 175.711 168.856 175.62C168.097 175.707 167.343 175.787 166.584 175.874ZM180.449 173.252C180.476 173.353 180.503 173.453 180.531 173.56L181.501 173.303L181.471 173.126C181.129 173.169 180.792 173.21 180.449 173.252ZM187.486 173.241C187.488 173.336 187.49 173.431 187.493 173.526C188.04 173.483 188.583 173.441 189.129 173.393C189.123 173.329 189.118 173.264 189.112 173.2C188.568 173.212 188.03 173.229 187.486 173.241ZM272.874 115.732C272.842 115.61 272.808 115.481 272.775 115.358C272.444 115.487 272.112 115.611 271.781 115.74C271.81 115.828 271.837 115.911 271.872 115.997L272.879 115.731L272.874 115.732ZM336.286 118.118C336.386 117.954 336.475 117.817 336.559 117.681C336.461 117.611 336.303 117.468 336.27 117.494C336.129 117.609 336.023 117.769 335.902 117.914C336.008 117.97 336.115 118.031 336.281 118.119L336.286 118.118ZM151.96 60.3489C151.96 60.3489 151.946 60.2986 151.94 60.2762L150.517 60.6522C150.517 60.6522 150.53 60.7025 150.536 60.7248L151.96 60.3489ZM277.416 111.85C277.407 111.816 277.399 111.783 277.39 111.749L276.35 112.024C276.359 112.057 276.368 112.091 276.376 112.124L277.416 111.85ZM252.99 100.963C253.036 100.963 253.075 100.958 253.12 100.958L252.806 99.7683C252.763 99.7796 252.726 99.7894 252.683 99.8007L252.99 100.963ZM204.475 170.613L204.499 170.703L205.459 170.449L205.435 170.36L204.475 170.613ZM231.195 168.865C231.193 168.943 231.189 169.016 231.187 169.094C231.57 169.118 231.952 169.137 232.34 169.16C232.343 169.087 232.343 169.022 232.347 168.949C231.962 168.919 231.579 168.895 231.2 168.863L231.195 168.865ZM263.806 165.967C263.796 165.927 263.787 165.894 263.777 165.855L262.577 166.172C262.587 166.211 262.596 166.244 262.606 166.283L263.801 165.968L263.806 165.967ZM202.951 170.825C202.951 170.825 202.939 170.78 202.933 170.758L202.32 170.919C202.32 170.919 202.332 170.964 202.338 170.987L202.951 170.825ZM278.684 112.979L278.65 112.851L277.888 113.052C277.9 113.097 277.91 113.136 277.922 113.18L278.684 112.979ZM272.983 113.791C272.944 113.73 272.911 113.667 272.862 113.614C272.847 113.6 272.758 113.63 272.756 113.642C272.751 113.709 272.764 113.783 272.773 113.859C272.848 113.839 272.915 113.815 272.989 113.79L272.983 113.791ZM249.863 168.011C249.879 168.072 249.907 168.137 249.929 168.197L250.707 167.991C250.694 167.941 250.681 167.891 250.668 167.84C250.396 167.894 250.132 167.952 249.861 168.005L249.863 168.011Z" fill="#36BDE6"/>
</g>
<defs>
<clipPath id="clip0_314_86">
<rect width="285" height="137" fill="white" transform="translate(42.2339 86.6517) rotate(-14.7919)"/>
</clipPath>
</defs>
</svg>
